<?xml version="1.0" encoding="UTF-8" standalone="no"?>
<svg
   version="1.0"
   width="3335.000000pt"
   height="2682.000000pt"
   viewBox="0 0 3335.000000 2682.000000"
   preserveAspectRatio="xMidYMid meet"
   id="svg70"
   sodipodi:docname="logo_milli.svg"
   inkscape:version="1.1.2 (0a00cf5339, 2022-02-04)"
   xmlns:inkscape="http://www.inkscape.org/namespaces/inkscape"
   xmlns:sodipodi="http://sodipodi.sourceforge.net/DTD/sodipodi-0.dtd"
   xmlns="http://www.w3.org/2000/svg"
   xmlns:svg="http://www.w3.org/2000/svg">
  <defs
     id="defs74">
    <filter
       style="color-interpolation-filters:sRGB;"
       inkscape:label="Colorize"
       id="filter90"
       x="0"
       y="0"
       width="1"
       height="1">
      <feComposite
         in2="SourceGraphic"
         operator="arithmetic"
         k1="0"
         k2="1"
         result="composite1"
         id="feComposite76" />
      <feColorMatrix
         in="composite1"
         values="1"
         type="saturate"
         result="colormatrix1"
         id="feColorMatrix78" />
      <feFlood
         flood-opacity="1"
         flood-color="rgb(109,52,93)"
         result="flood1"
         id="feFlood80" />
      <feBlend
         in="flood1"
         in2="colormatrix1"
         mode="multiply"
         result="blend1"
         id="feBlend82" />
      <feBlend
         in2="blend1"
         mode="screen"
         result="blend2"
         id="feBlend84" />
      <feColorMatrix
         in="blend2"
         values="1"
         type="saturate"
         result="colormatrix2"
         id="feColorMatrix86" />
      <feComposite
         in="colormatrix2"
         in2="SourceGraphic"
         operator="in"
         k2="1"
         result="fbSourceGraphic"
         id="feComposite88" />
      <feColorMatrix
         result="fbSourceGraphicAlpha"
         in="fbSourceGraphic"
         values="0 0 0 -1 0 0 0 0 -1 0 0 0 0 -1 0 0 0 0 1 0"
         id="feColorMatrix110" />
      <feComposite
         in2="fbSourceGraphic"
         id="feComposite112"
         operator="arithmetic"
         k1="0"
         k2="1"
         result="composite1"
         in="fbSourceGraphic" />
      <feColorMatrix
         id="feColorMatrix114"
         in="composite1"
         values="1"
         type="saturate"
         result="colormatrix1" />
      <feFlood
         id="feFlood116"
         flood-opacity="1"
         flood-color="rgb(109,52,93)"
         result="flood1" />
      <feBlend
         in2="colormatrix1"
         id="feBlend118"
         in="flood1"
         mode="multiply"
         result="blend1" />
      <feBlend
         in2="blend1"
         id="feBlend120"
         mode="screen"
         result="blend2" />
      <feColorMatrix
         id="feColorMatrix122"
         in="blend2"
         values="1"
         type="saturate"
         result="colormatrix2" />
      <feComposite
         in2="fbSourceGraphic"
         id="feComposite124"
         in="colormatrix2"
         operator="in"
         k2="1"
         result="fbSourceGraphic" />
      <feColorMatrix
         result="fbSourceGraphicAlpha"
         in="fbSourceGraphic"
         values="0 0 0 -1 0 0 0 0 -1 0 0 0 0 -1 0 0 0 0 1 0"
         id="feColorMatrix144" />
      <feComposite
         in2="fbSourceGraphic"
         id="feComposite146"
         operator="arithmetic"
         k1="0"
         k2="1"
         result="composite1"
         in="fbSourceGraphic" />
      <feColorMatrix
         id="feColorMatrix148"
         in="composite1"
         values="1"
         type="saturate"
         result="colormatrix1" />
      <feFlood
         id="feFlood150"
         flood-opacity="1"
         flood-color="rgb(109,52,93)"
         result="flood1" />
      <feBlend
         in2="colormatrix1"
         id="feBlend152"
         in="flood1"
         mode="multiply"
         result="blend1" />
      <feBlend
         in2="blend1"
         id="feBlend154"
         mode="screen"
         result="blend2" />
      <feColorMatrix
         id="feColorMatrix156"
         in="blend2"
         values="1"
         type="saturate"
         result="colormatrix2" />
      <feComposite
         in2="fbSourceGraphic"
         id="feComposite158"
         in="colormatrix2"
         operator="in"
         k2="1"
         result="composite2" />
    </filter>
  </defs>
  <sodipodi:namedview
     id="namedview72"
     pagecolor="#ffffff"
     bordercolor="#666666"
     borderopacity="1.0"
     inkscape:pageshadow="2"
     inkscape:pageopacity="0.0"
     inkscape:pagecheckerboard="0"
     inkscape:document-units="pt"
     showgrid="false"
     inkscape:zoom="0.23993289"
     inkscape:cx="2211.035"
     inkscape:cy="1804.6713"
     inkscape:window-width="1880"
     inkscape:window-height="1049"
     inkscape:window-x="40"
     inkscape:window-y="0"
     inkscape:window-maximized="1"
     inkscape:current-layer="svg70" />
  <g
     transform="translate(0.000000,2682.000000) scale(0.100000,-0.100000)"
     fill="#000000"
     stroke="none"
     id="g68"
     style="filter:url(#filter90);fill:#6d345d;fill-opacity:0.89999998">
    <path
       d="M19193 20556 c-151 -49 -321 -234 -343 -373 -15 -90 -12 -199 9 -310 16 -81 30 -122 69 -195 88 -166 88 -165 52 -1073 -22 -553 -24 -733 -25 -1670 0 -1185 14 -1624 75 -2418 56 -707 276 -2265 365 -2573 18 -63 42 -76 145 -79 63 -2 86 -8 145 -37 39 -20 92 -43 119 -52 47 -16 50 -16 70 2 12 11 29 22 39 25 9 4 17 15 17 26 0 11 14 30 30 43 28 20 30 26 30 84 0 54 3 64 20 69 30 10 42 41 41 110 0 44 4 66 14 75 13 10 17 7 30 -23 8 -20 15 -41 15 -46 0 -5 12 -24 26 -41 25 -29 30 -31 68 -25 23 4 44 10 49 14 4 4 15 51 23 105 13 80 14 118 5 216 -6 65 -11 155 -11 200 0 45 -4 79 -9 76 -10 -7 -24 231 -21 369 1 50 1 132 1 184 -1 97 3 116 19 91 8 -12 10 -10 10 9 0 38 10 18 15 -30 2 -24 9 -156 16 -294 7 -152 22 -335 39 -465 28 -213 29 -215 59 -240 22 -19 33 -40 42 -78 6 -29 21 -65 34 -80 l23 -26 51 23 c42 20 52 30 57 57 5 29 7 105 13 584 l2 155 23 -60 c34 -89 37 -95 48 -95 12 0 36 58 44 108 5 32 10 39 25 35 18 -5 19 2 19 98 0 57 -7 160 -15 229 -219 1871 -205 3765 41 5585 48 356 54 412 54 552 0 321 -75 517 -276 717 -145 144 -276 211 -554 286 -85 23 -218 59 -295 80 -275 77 -461 103 -542 76z m204 -2632 c7 -107 -13 -308 -33 -344 -13 -22 -14 0 -9 190 3 118 9 235 12 260 6 45 6 45 15 15 5 -16 11 -71 15 -121z m-21 -758 c4 -62 3 -130 -1 -152 l-9 -39 -7 50 c-4 28 -7 106 -7 175 -1 154 15 132 24 -34z m852 -881 c8 -137 4 -187 -14 -164 -27 33 -46 603 -21 628 10 10 14 -23 20 -166 4 -98 10 -232 15 -298z m-20 -498 c-3 -40 -4 -41 -16 -19 -8 14 -10 35 -6 58 5 29 9 33 16 20 5 -9 8 -35 6 -59z m16 -378 c4 -22 4 -56 0 -75 -5 -28 -9 -32 -20 -23 -20 16 -20 139 0 139 8 0 16 -16 20 -41z m16 -1351 c0 -2 5 -69 10 -150 5 -81 13 -155 18 -164 10 -19 -4 -64 -19 -64 -12 0 -17 32 -23 155 -4 61 -9 136 -12 168 -6 49 -4 57 10 57 9 0 16 -1 16 -2z"
       id="path2"
       style="fill:#6d345d;fill-opacity:0.89999998" />
    <path
       d="M6619 20546 c-106 -28 -234 -139 -311 -268 -42 -71 -42 -71 -46 -188 -6 -171 16 -287 80 -410 91 -174 92 -194 65 -885 -33 -832 -39 -1248 -34 -2065 3 -443 10 -917 16 -1055 6 -137 20 -452 31 -700 11 -247 27 -621 35 -830 31 -797 55 -1142 105 -1555 45 -365 85 -543 155 -697 36 -78 70 -105 150 -118 22 -3 50 -8 62 -11 17 -3 24 3 33 32 18 53 63 70 148 53 60 -11 66 -10 78 6 8 10 17 40 20 66 5 40 11 49 35 60 49 20 79 64 79 115 0 53 14 57 55 14 19 -20 39 -30 57 -30 24 0 32 7 48 43 12 25 20 64 20 98 0 30 6 63 13 74 13 17 15 16 25 -15 7 -18 12 -52 12 -75 0 -61 31 -97 78 -93 42 3 46 12 59 138 l8 75 40 0 c53 0 69 30 57 110 -8 47 -6 61 10 91 10 20 22 61 26 91 7 58 15 67 64 77 39 9 44 54 24 185 -24 154 -47 441 -37 460 20 35 41 -114 61 -428 l9 -146 31 -28 c23 -21 40 -27 63 -25 l32 3 0 85 c-1 113 -22 749 -36 1085 -13 305 -6 1670 10 2180 52 1577 92 2180 192 2885 84 595 34 864 -211 1124 -166 176 -291 239 -684 343 -116 30 -251 66 -301 80 -95 25 -312 63 -355 62 -14 0 -46 -6 -71 -13z m260 -3975 c1 -53 -2 -72 -10 -64 -14 14 -24 180 -13 229 8 39 8 39 15 -26 4 -36 7 -99 8 -139z m-164 -543 c-4 -167 -9 -305 -11 -307 -15 -16 -19 43 -19 272 0 259 6 337 26 337 8 0 9 -94 4 -302z m800 -448 c9 -41 -4 -135 -17 -122 -11 11 -23 115 -15 136 10 25 25 19 32 -14z m-65 -985 c0 -82 -14 -107 -24 -43 -8 48 2 130 15 122 5 -3 9 -38 9 -79z m318 -272 c30 -25 44 -145 46 -366 1 -148 -2 -179 -14 -187 -34 -22 -37 -12 -50 151 -18 212 -24 419 -13 419 6 0 20 -8 31 -17z"
       id="path4"
       style="fill:#6d345d;fill-opacity:0.89999998" />
    <path
       d="M12828 20546 c-118 -42 -247 -165 -315 -301 -31 -60 -36 -233 -12 -367 15 -83 29 -124 74 -213 70 -140 80 -199 72 -430 -4 -93 -13 -359 -22 -590 -54 -1503 -46 -2640 26 -3795 39 -642 178 -1685 295 -2225 82 -378 97 -445 126 -535 61 -194 130 -285 237 -317 92 -26 129 -16 215 61 41 36 81 66 89 66 8 0 26 9 40 20 21 17 27 33 33 80 6 56 8 60 40 70 26 9 36 20 47 53 13 41 15 42 65 48 55 7 102 31 102 52 0 45 23 85 68 120 l48 36 11 105 c8 78 16 113 32 135 15 21 21 44 21 83 0 29 11 89 25 133 23 71 26 96 25 225 -1 184 17 180 31 -7 10 -153 27 -203 65 -203 36 0 92 28 106 54 26 45 9 456 -57 1396 -19 272 -39 605 -44 740 -53 1289 12 2605 189 3875 90 643 42 903 -215 1173 -109 116 -242 199 -405 255 -42 14 -163 49 -270 77 -107 29 -235 63 -285 76 -212 57 -384 76 -457 50z m1306 -2432 c10 -26 -28 -836 -41 -879 -6 -18 -7 -18 -14 5 -11 37 -9 471 2 575 6 50 14 140 18 200 5 61 9 111 10 113 4 8 20 -1 25 -14z m-52 -1130 l-8 -79 -8 66 c-8 70 -1 118 15 102 6 -6 6 -41 1 -89z m-563 -353 c1 -66 -2 -92 -9 -85 -19 19 -33 138 -25 200 l8 59 13 -40 c7 -22 13 -83 13 -134z m560 -263 c1 -145 -10 -201 -23 -111 -8 63 -8 322 2 408 l7 70 6 -110 c4 -60 7 -176 8 -257z m-57 -1905 c19 -41 22 -68 24 -178 1 -71 6 -159 13 -195 16 -93 13 -127 -5 -65 -9 28 -24 57 -35 65 -19 15 -21 32 -26 218 -3 111 -3 202 1 202 4 0 16 -21 28 -47z m90 -671 c22 -89 35 -387 18 -407 -18 -22 -37 -18 -44 8 -4 12 -10 124 -13 250 -5 195 -4 227 8 222 8 -3 22 -36 31 -73z"
       id="path6"
       style="fill:#6d345d;fill-opacity:0.89999998" />
    <path
       d="M22298 20546 c-155 -55 -318 -239 -339 -381 -25 -175 2 -341 85 -508 75 -152 83 -209 67 -527 -60 -1231 -68 -2799 -21 -3815 51 -1091 176 -2238 296 -2716 96 -382 210 -665 312 -772 94 -98 161 -86 235 44 12 22 29 41 38 44 32 11 79 67 79 96 0 15 5 40 10 55 l11 27 37 -36 c37 -36 64 -45 89 -29 19 12 43 90 43 141 0 49 21 94 34 73 4 -6 9 -41 13 -77 7 -81 30 -115 77 -115 39 0 56 28 57 93 0 23 3 60 7 82 7 38 9 40 51 45 42 5 46 8 78 66 67 123 98 333 91 615 -2 93 -3 168 -2 166 1 -1 14 -81 28 -178 27 -189 36 -222 68 -256 28 -30 74 -31 83 -2 4 11 2 75 -4 142 -11 115 -35 662 -63 1447 -17 477 -17 2457 0 2840 27 608 61 1053 108 1425 23 179 41 297 90 575 21 117 21 377 0 503 -37 220 -150 410 -333 557 -139 112 -243 158 -535 236 -95 25 -220 59 -278 75 -135 38 -356 79 -423 79 -29 -1 -68 -7 -89 -14z m4 -4118 c-4 -349 -11 -439 -27 -354 -9 46 0 662 10 694 4 12 11 22 15 22 4 0 5 -163 2 -362z m628 -568 c-6 -23 -7 -23 -13 -5 -14 48 -18 132 -11 208 l8 82 12 -130 c6 -71 8 -141 4 -155z m548 -540 c0 -30 -3 -66 -7 -80 -7 -24 -8 -23 -19 15 -15 52 -15 128 0 143 18 18 27 -9 26 -78z m136 -1578 c11 -70 7 -162 -8 -162 -14 0 -26 78 -26 166 0 54 25 51 34 -4z"
       id="path8"
       style="fill:#6d345d;fill-opacity:0.89999998" />
    <path
       d="M9723 20525 c-88 -27 -180 -97 -250 -190 -80 -106 -92 -138 -99 -272 -8 -165 15 -276 91 -427 74 -150 82 -213 66 -530 -6 -127 -19 -449 -28 -716 -21 -610 -25 -2120 -5 -2520 32 -670 59 -1092 142 -2230 27 -371 52 -718 55 -770 3 -52 12 -131 20 -175 8 -44 19 -123 25 -175 17 -151 38 -254 75 -358 19 -53 46 -137 61 -187 14 -49 33 -98 41 -107 18 -20 135 -82 183 -96 26 -8 65 -6 155 6 l120 17 13 60 c25 117 32 127 67 101 16 -12 20 -26 20 -80 0 -67 12 -93 39 -83 29 11 53 66 64 149 7 45 18 85 25 90 6 4 31 5 54 2 38 -6 42 -4 47 17 20 109 17 104 63 101 23 -2 54 3 70 12 27 14 31 23 56 141 25 122 27 128 66 164 23 21 41 44 42 52 7 148 17 241 27 251 10 10 21 8 55 -10 56 -30 67 -28 117 16 l43 38 -12 374 c-6 206 -20 593 -31 860 -36 908 -41 1045 -49 1520 -22 1225 34 2118 220 3500 27 201 23 482 -9 600 -42 158 -116 283 -243 409 -165 166 -272 217 -691 327 -95 25 -213 57 -263 70 -115 31 -306 64 -359 63 -22 0 -60 -6 -83 -14z m1338 -2914 c14 -48 5 -98 -15 -82 -26 22 -40 70 -28 96 16 35 29 31 43 -14z m-71 -631 c0 -10 -7 -23 -16 -31 -13 -10 -17 -10 -25 2 -10 16 -12 63 -2 72 10 10 43 -23 43 -43z m0 -172 c0 -35 -37 -111 -50 -103 -16 10 -11 103 6 137 16 30 17 31 30 13 8 -10 14 -32 14 -47z m-74 -3145 c1 -32 10 -89 20 -128 13 -51 18 -115 20 -235 1 -118 7 -179 18 -215 19 -62 20 -125 2 -150 -13 -18 -14 -18 -19 1 -15 47 -40 219 -48 329 -18 231 -28 446 -22 461 11 29 27 -5 29 -63z"
       id="path10"
       style="fill:#6d345d;fill-opacity:0.89999998" />
    <path
       d="M16621 19770 l-44 -38 -36 24 c-20 13 -41 24 -47 24 -22 0 -65 -42 -126 -123 -34 -45 -96 -125 -139 -178 -84 -104 -114 -155 -128 -218 -9 -40 -8 -42 20 -57 16 -8 29 -18 29 -22 0 -4 -18 -25 -39 -46 -43 -42 -75 -106 -86 -173 -5 -32 -2 -50 15 -83 20 -39 20 -43 5 -66 -9 -14 -42 -37 -73 -52 l-57 -27 -3 -52 c-2 -29 2 -61 8 -72 29 -56 165 -95 272 -80 97 14 126 11 133 -12 8 -24 83 -59 126 -59 47 0 133 34 223 90 69 42 90 51 122 48 37 -3 39 -4 36 -35 -5 -43 24 -50 100 -24 70 24 98 19 98 -19 0 -19 7 -30 25 -38 24 -11 34 -6 138 69 126 92 279 216 378 307 54 50 66 66 62 86 -3 13 3 38 12 54 21 35 14 87 -11 78 -8 -3 -44 -11 -81 -18 -60 -11 -66 -10 -79 7 -17 23 -17 60 -1 99 11 25 9 39 -10 97 -12 38 -26 76 -32 86 -6 12 -58 34 -146 63 -119 39 -139 49 -152 73 -25 49 -50 67 -92 67 -38 0 -39 1 -82 83 l-45 82 -38 -2 c-46 -3 -62 8 -71 48 -8 34 -14 35 -66 9 l-39 -21 -10 25 c-14 37 -22 37 -69 -4z"
       id="path12"
       style="fill:#6d345d;fill-opacity:0.89999998" />
    <path
       d="M25888 19743 c-59 -56 -143 -176 -288 -412 -55 -89 -65 -113 -68 -160 -3 -45 1 -65 22 -103 13 -25 29 -63 35 -82 9 -34 7 -40 -45 -112 -30 -42 -64 -94 -74 -115 -11 -21 -39 -55 -61 -76 -23 -21 -53 -56 -67 -77 -24 -39 -24 -40 -7 -72 19 -35 10 -33 221 -55 l111 -12 54 37 c49 33 60 36 125 36 58 0 80 5 115 25 24 14 50 25 58 25 7 0 31 -16 52 -35 42 -38 67 -42 133 -24 30 8 49 8 77 -1 32 -11 44 -10 79 4 40 16 41 16 80 -10 l39 -26 77 44 c75 42 423 334 491 412 42 46 50 93 29 158 -9 27 -13 54 -10 59 8 14 -22 56 -45 64 -11 3 -38 1 -59 -5 -53 -14 -72 -5 -72 32 0 21 -24 65 -81 147 l-80 117 -87 42 c-48 22 -102 43 -120 46 -19 3 -46 15 -61 26 -34 24 -68 17 -135 -29 -52 -36 -50 -36 -81 -15 l-24 16 24 36 c30 44 32 83 5 107 -19 17 -22 17 -84 -9 -71 -30 -78 -29 -121 22 -21 25 -35 32 -62 32 -28 0 -45 -10 -95 -57z"
       id="path14"
       style="fill:#6d345d;fill-opacity:0.89999998" />
    <path
       d="M16040 17266 c-100 -29 -188 -94 -226 -168 -26 -50 -44 -127 -44 -189 0 -30 -8 -102 -17 -160 -25 -149 -25 -961 0 -1334 57 -837 157 -1804 277 -2691 23 -164 47 -381 54 -480 9 -122 23 -221 41 -300 38 -166 34 -159 97 -172 49 -10 54 -9 71 10 26 31 31 63 18 138 -14 86 -15 213 -1 205 10 -6 20 -39 60 -192 24 -90 54 -133 93 -133 14 0 30 7 38 16 8 10 21 13 37 9 23 -6 24 -4 18 22 -20 91 -20 90 13 96 16 4 48 22 69 42 22 19 45 35 51 35 6 0 38 -13 71 -30 33 -16 63 -30 68 -30 5 0 17 17 26 38 14 31 15 46 6 91 -5 30 -8 57 -5 59 3 3 21 -2 41 -12 43 -20 69 -7 60 30 -5 18 5 32 53 74 55 48 60 56 63 99 l3 46 54 17 c49 16 57 16 78 3 32 -21 35 -20 65 28 27 42 27 47 19 118 -6 40 -9 74 -8 75 1 1 14 4 29 8 22 5 27 2 37 -24 5 -17 14 -30 19 -30 11 0 22 34 22 73 0 15 5 27 10 27 6 0 10 -6 10 -13 0 -21 39 -52 50 -41 6 6 13 39 16 74 3 36 14 86 25 111 17 43 18 59 9 175 -14 190 -38 619 -52 949 -19 430 -17 1910 2 2215 29 449 17 612 -51 749 -37 73 -78 110 -184 161 -101 49 -183 71 -442 120 -114 21 -257 50 -318 65 -133 32 -350 43 -425 21z m1186 -2202 c24 -58 22 -295 -3 -315 -7 -7 -17 -9 -20 -5 -11 10 -21 111 -22 207 -2 144 15 185 45 113z m-8 -406 c15 -15 16 -84 1 -94 -17 -10 -29 16 -29 64 0 43 7 51 28 30z m-478 -500 c0 -26 -4 -48 -9 -48 -13 0 -34 97 -26 118 12 30 35 -16 35 -70z"
       id="path16"
       style="fill:#6d345d;fill-opacity:0.89999998" />
    <path
       d="M25467 17270 c-111 -28 -211 -112 -248 -208 -19 -48 -23 -87 -30 -257 -4 -110 -15 -254 -23 -320 -41 -312 -1 -1156 114 -2400 67 -719 87 -878 164 -1292 59 -312 81 -446 105 -630 18 -131 30 -192 69 -348 7 -26 14 -31 62 -42 64 -14 75 -8 91 47 8 27 8 51 0 89 -21 99 10 88 65 -22 27 -52 43 -72 67 -82 29 -12 34 -12 54 7 13 12 28 18 40 14 13 -4 28 3 48 24 16 16 37 30 47 30 25 0 69 23 92 49 10 11 37 23 61 27 37 5 45 11 59 42 13 29 14 49 7 91 -6 41 -5 63 7 92 16 42 21 44 67 30 27 -7 35 -4 79 35 38 35 49 52 53 84 5 37 10 42 60 65 50 22 57 23 76 10 30 -21 31 -20 61 25 26 39 26 43 20 143 -8 118 7 166 57 192 l28 15 23 -72 c21 -65 48 -102 63 -86 4 4 9 35 12 70 3 35 14 88 25 119 19 55 19 57 -1 305 -36 437 -68 2071 -55 2794 12 661 10 782 -9 863 -59 240 -194 322 -673 406 -94 17 -227 44 -295 62 -102 25 -149 31 -264 34 -77 3 -157 0 -178 -5z m64 -2730 c12 0 0 -111 -15 -129 -8 -11 -13 -1 -22 44 -13 65 -8 99 13 91 8 -3 19 -6 24 -6z m1152 -471 l6 -54 -21 45 c-12 25 -22 72 -25 110 l-4 65 19 -56 c11 -31 22 -81 25 -110z m36 -573 c6 -33 11 -98 11 -145 0 -75 -2 -84 -15 -70 -16 16 -35 161 -34 264 0 56 1 58 13 35 8 -14 19 -52 25 -84z"
       id="path18"
       style="fill:#6d345d;fill-opacity:0.89999998" />
    <path
       d="M20271 13134 c0 -11 3 -14 6 -6 3 7 2 16 -1 19 -3 4 -6 -2 -5 -13z"
       id="path20"
       style="fill:#6d345d;fill-opacity:0.89999998" />
    <path
       d="M17734 9510 c-325 -85 -516 -391 -450 -720 47 -232 198 -393 422 -450 148 -38 360 -22 493 37 84 37 84 35 49 111 -45 98 -39 95 -121 56 -241 -114 -507 -35 -608 180 -84 180 -50 378 87 512 127 124 309 153 488 78 105 -44 100 -45 140 35 20 39 36 74 36 79 0 16 -134 70 -212 86 -103 21 -235 20 -324 -4z"
       id="path22"
       style="fill:#6d345d;fill-opacity:0.89999998" />
    <path
       d="M23635 9520 c-89 -18 -159 -53 -210 -104 -60 -60 -85 -121 -85 -210 0 -174 82 -252 364 -346 218 -72 270 -112 268 -205 -2 -178 -238 -227 -485 -101 l-87 45 -35 -69 c-19 -38 -35 -77 -35 -85 0 -22 145 -88 237 -109 92 -20 260 -21 338 -1 123 32 204 98 253 204 22 46 26 71 26 136 0 96 -22 153 -83 214 -54 54 -127 89 -301 145 -170 54 -218 79 -244 127 -38 70 11 163 99 188 95 26 244 7 345 -44 27 -14 55 -25 63 -25 13 0 77 120 77 146 0 22 -110 70 -202 88 -81 17 -235 19 -303 6z"
       id="path24"
       style="fill:#6d345d;fill-opacity:0.89999998" />
    <path
       d="M8785 9508 c-3 -7 -4 -274 -3 -593 l3 -580 85 0 85 0 5 419 5 419 169 -277 168 -277 81 3 80 3 164 274 163 274 2 -419 3 -419 90 0 90 0 3 584 c2 461 0 586 -10 593 -17 10 -169 10 -186 0 -7 -5 -99 -154 -205 -332 -105 -178 -196 -322 -202 -321 -5 1 -95 145 -198 319 -103 174 -195 323 -204 330 -10 7 -49 12 -100 12 -58 0 -85 -4 -88 -12z"
       id="path26"
       style="fill:#6d345d;fill-opacity:0.89999998" />
    <path
       d="M10442 9508 c-9 -9 -12 -152 -12 -584 0 -478 2 -573 14 -583 9 -8 45 -11 98 -9 l83 3 3 579 c1 419 -1 583 -9 592 -15 18 -160 19 -177 2z"
       id="path28"
       style="fill:#6d345d;fill-opacity:0.89999998" />
    <path
       d="M11092 9508 c-19 -19 -17 -1151 2 -1167 9 -8 118 -11 382 -9 l369 3 3 79 c2 57 -1 82 -10 87 -7 5 -136 9 -285 9 l-273 0 0 493 c0 370 -3 496 -12 505 -7 7 -42 12 -88 12 -46 0 -81 -5 -88 -12z"
       id="path30"
       style="fill:#6d345d;fill-opacity:0.89999998" />
    <path
       d="M12235 9508 c-3 -7 -4 -274 -3 -593 l3 -580 375 0 375 0 0 85 0 85 -282 3 -283 2 0 499 c0 446 -2 500 -16 505 -31 12 -164 7 -169 -6z"
       id="path32"
       style="fill:#6d345d;fill-opacity:0.89999998" />
    <path
       d="M13375 9508 c-3 -7 -4 -274 -3 -593 l3 -580 90 0 90 0 0 590 0 590 -88 3 c-64 2 -89 -1 -92 -10z"
       id="path34"
       style="fill:#6d345d;fill-opacity:0.89999998" />
    <path
       d="M14982 9493 c-5 -16 -105 -279 -221 -586 -116 -308 -208 -563 -205 -568 8 -14 181 -11 191 4 4 6 28 66 53 132 l46 120 248 0 249 0 44 -120 c24 -65 49 -125 55 -132 12 -15 183 -19 192 -4 5 7 -361 1008 -419 1149 l-14 32 -105 0 -104 0 -10 -27z m207 -458 c49 -132 92 -248 96 -257 7 -17 -6 -18 -190 -18 -153 0 -196 3 -193 13 62 168 192 506 194 504 2 -2 44 -111 93 -242z"
       id="path36"
       style="fill:#6d345d;fill-opacity:0.89999998" />
    <path
       d="M15985 9508 c-3 -7 -4 -274 -3 -593 l3 -580 90 0 90 0 3 218 2 218 132 -3 132 -3 138 -205 c76 -113 146 -211 155 -217 20 -16 199 -18 208 -3 8 14 0 26 -146 237 -72 103 -133 193 -136 199 -2 6 18 19 44 29 68 26 174 134 197 200 24 72 30 152 16 220 -35 168 -142 261 -330 284 -125 16 -589 15 -595 -1z m590 -169 c98 -27 151 -107 142 -216 -6 -82 -38 -132 -104 -164 -45 -22 -62 -24 -245 -27 l-198 -4 0 211 0 211 183 0 c100 0 200 -5 222 -11z"
       id="path38"
       style="fill:#6d345d;fill-opacity:0.89999998" />
    <path
       d="M18675 9508 c-3 -7 -4 -274 -3 -593 l3 -580 90 0 90 0 3 253 2 252 310 0 310 0 0 -244 c0 -197 3 -246 14 -255 9 -8 45 -11 98 -9 l83 3 3 584 c2 461 0 586 -10 593 -21 13 -162 10 -176 -4 -9 -9 -12 -79 -12 -255 l0 -243 -310 0 -310 0 -2 253 -3 252 -88 3 c-64 2 -89 -1 -92 -10z"
       id="path40"
       style="fill:#6d345d;fill-opacity:0.89999998" />
    <path
       d="M20142 9508 c-17 -17 -17 -1149 0 -1166 12 -12 143 -17 172 -6 14 6 16 66 16 583 0 435 -3 580 -12 589 -7 7 -42 12 -88 12 -46 0 -81 -5 -88 -12z"
       id="path42"
       style="fill:#6d345d;fill-opacity:0.89999998" />
    <path
       d="M20672 9511 c-10 -6 41 -145 215 -592 l228 -584 107 -3 106 -3 232 582 c127 320 229 588 226 595 -6 16 -171 20 -194 6 -7 -5 -76 -175 -153 -378 -207 -546 -211 -556 -219 -547 -4 4 -83 211 -175 458 -92 248 -174 456 -183 463 -18 14 -169 17 -190 3z"
       id="path44"
       style="fill:#6d345d;fill-opacity:0.89999998" />
    <path
       d="M22132 9508 c-19 -19 -17 -1151 2 -1167 9 -8 131 -10 432 -9 l419 3 0 85 0 85 -332 3 -333 2 0 165 0 165 288 2 287 3 3 83 3 82 -291 0 -290 0 0 165 0 165 333 2 332 3 0 85 0 85 -420 3 c-319 2 -424 -1 -433 -10z"
       id="path46"
       style="fill:#6d345d;fill-opacity:0.89999998" />
    <path
       d="M11011 7459 c-315 -62 -529 -331 -507 -639 12 -169 62 -288 167 -393 114 -114 262 -170 449 -170 118 0 195 13 290 50 104 41 104 42 65 126 -38 82 -39 82 -132 43 -202 -85 -420 -45 -538 98 -180 220 -111 553 141 677 115 57 278 52 413 -11 35 -17 65 -30 67 -30 2 0 20 35 39 77 l36 78 -21 17 c-79 64 -327 105 -469 77z"
       id="path48"
       style="fill:#6d345d;fill-opacity:0.89999998" />
    <path
       d="M12280 7455 c-110 -25 -224 -88 -305 -169 -124 -125 -183 -280 -172 -460 7 -119 36 -207 98 -301 81 -120 211 -211 360 -251 84 -22 234 -22 319 0 232 59 407 237 455 461 64 304 -112 606 -409 701 -102 33 -250 41 -346 19z m292 -195 c259 -97 352 -440 181 -664 -152 -199 -464 -214 -631 -31 -123 135 -152 317 -77 483 49 107 175 207 295 232 63 13 170 4 232 -20z"
       id="path50"
       style="fill:#6d345d;fill-opacity:0.89999998" />
    <path
       d="M17400 7455 c-98 -22 -217 -84 -287 -149 -81 -74 -130 -150 -166 -255 -52 -152 -37 -341 39 -493 69 -137 207 -242 374 -284 89 -23 272 -22 365 1 84 21 195 69 195 85 0 17 -69 150 -79 150 -4 0 -37 -13 -72 -29 -277 -125 -557 -13 -634 253 -13 43 -16 84 -13 151 3 82 8 101 41 168 43 88 116 161 204 203 48 24 73 29 154 32 105 5 174 -10 261 -54 26 -13 50 -24 53 -24 7 0 75 137 75 153 0 16 -97 63 -174 84 -78 21 -259 26 -336 8z"
       id="path52"
       style="fill:#6d345d;fill-opacity:0.89999998" />
    <path
       d="M13462 6863 l3 -588 377 -3 378 -2 5 23 c4 12 5 50 3 82 l-3 60 -287 3 -288 2 0 505 0 505 -95 0 -95 0 2 -587z"
       id="path54"
       style="fill:#6d345d;fill-opacity:0.89999998" />
    <path
       d="M14602 6863 l3 -588 380 0 380 0 0 80 0 80 -285 5 -285 5 -3 503 -2 502 -95 0 -95 0 2 -587z"
       id="path56"
       style="fill:#6d345d;fill-opacity:0.89999998" />
    <path
       d="M15745 7438 c-3 -7 -4 -272 -3 -588 l3 -575 430 0 430 0 3 83 3 82 -336 0 -335 0 0 170 0 170 288 2 287 3 0 80 0 80 -287 3 -288 2 0 165 0 165 333 2 332 3 3 83 3 82 -431 0 c-335 0 -432 -3 -435 -12z"
       id="path58"
       style="fill:#6d345d;fill-opacity:0.89999998" />
    <path
       d="M18224 7437 c-3 -8 -4 -45 -2 -83 l3 -69 197 -3 198 -2 2 -503 3 -502 89 -3 c65 -2 92 1 98 10 4 7 8 235 8 505 l0 493 193 2 192 3 3 83 3 82 -491 0 c-403 0 -492 -2 -496 -13z"
       id="path60"
       style="fill:#6d345d;fill-opacity:0.89999998" />
    <path
       d="M19555 7438 c-3 -7 -4 -272 -3 -588 l3 -575 95 0 95 0 0 585 0 585 -93 3 c-68 2 -94 -1 -97 -10z"
       id="path62"
       style="fill:#6d345d;fill-opacity:0.89999998" />
    <path
       d="M20080 7445 c0 -8 440 -1135 452 -1158 8 -16 22 -17 114 -15 l105 3 229 575 c127 316 230 581 230 588 0 9 -27 12 -104 12 l-104 0 -59 -157 c-33 -87 -114 -299 -179 -470 -65 -172 -119 -311 -121 -309 -2 1 -81 211 -177 467 l-174 464 -106 3 c-58 1 -106 0 -106 -3z"
       id="path64"
       style="fill:#6d345d;fill-opacity:0.89999998" />
    <path
       d="M21546 7434 c-9 -24 -7 -1137 2 -1152 7 -10 100 -12 433 -10 l424 3 3 83 3 82 -336 0 -335 0 0 170 0 170 290 0 290 0 0 85 0 85 -290 0 -290 0 0 165 0 165 333 2 332 3 3 83 3 82 -430 0 c-382 0 -430 -2 -435 -16z"
       id="path66"
       style="fill:#6d345d;fill-opacity:0.89999998" />
  </g>
</svg>
